<mxfile host="Electron" agent="Mozilla/5.0 (Macintosh; Intel Mac OS X 10_15_7) AppleWebKit/537.36 (KHTML, like Gecko) draw.io/24.7.8 Chrome/128.0.6613.36 Electron/32.0.1 Safari/537.36" version="24.7.8">
  <diagram name="第 1 页" id="c1hC5irgDyRN8jN2DibR">
    <mxGraphModel dx="857" dy="552" grid="1" gridSize="10" guides="1" tooltips="1" connect="1" arrows="1" fold="1" page="1" pageScale="1" pageWidth="827" pageHeight="1169" math="0" shadow="0">
      <root>
        <mxCell id="0" />
        <mxCell id="1" parent="0" />
        <mxCell id="yZRmuScVjJnWq_XWS8Pr-1" value="&lt;font face=&quot;monaco&quot;&gt;slice&lt;/font&gt;" style="rounded=0;whiteSpace=wrap;html=1;strokeWidth=2;fillColor=#dae8fc;strokeColor=#6c8ebf;comic=1;jiggle=3;" parent="1" vertex="1">
          <mxGeometry x="156" y="199" width="90" height="40" as="geometry" />
        </mxCell>
        <mxCell id="yZRmuScVjJnWq_XWS8Pr-20" style="edgeStyle=orthogonalEdgeStyle;rounded=0;orthogonalLoop=1;jettySize=auto;html=1;entryX=0;entryY=1;entryDx=0;entryDy=0;" parent="1" source="yZRmuScVjJnWq_XWS8Pr-2" target="yZRmuScVjJnWq_XWS8Pr-5" edge="1">
          <mxGeometry relative="1" as="geometry">
            <Array as="points">
              <mxPoint x="295" y="261" />
              <mxPoint x="295" y="310" />
              <mxPoint x="400" y="310" />
            </Array>
          </mxGeometry>
        </mxCell>
        <mxCell id="yZRmuScVjJnWq_XWS8Pr-2" value="&lt;font face=&quot;monaco&quot;&gt;array&lt;/font&gt;" style="rounded=0;whiteSpace=wrap;html=1;strokeWidth=1;fillColor=#f8cecc;strokeColor=#b85450;comic=1;jiggle=3;" parent="1" vertex="1">
          <mxGeometry x="156" y="240" width="90" height="40" as="geometry" />
        </mxCell>
        <mxCell id="yZRmuScVjJnWq_XWS8Pr-3" value="&lt;font face=&quot;monaco&quot;&gt;len = 5&lt;/font&gt;" style="rounded=0;whiteSpace=wrap;html=1;strokeWidth=1;fillColor=#f8cecc;strokeColor=#b85450;comic=1;jiggle=3;" parent="1" vertex="1">
          <mxGeometry x="156" y="280" width="90" height="40" as="geometry" />
        </mxCell>
        <mxCell id="yZRmuScVjJnWq_XWS8Pr-4" value="&lt;font face=&quot;monaco&quot;&gt;cap = 10&lt;/font&gt;" style="rounded=0;whiteSpace=wrap;html=1;strokeWidth=1;fillColor=#f8cecc;strokeColor=#b85450;comic=1;jiggle=3;" parent="1" vertex="1">
          <mxGeometry x="156" y="320" width="90" height="40" as="geometry" />
        </mxCell>
        <mxCell id="yZRmuScVjJnWq_XWS8Pr-5" value="&lt;font face=&quot;monaco&quot;&gt;0&lt;/font&gt;" style="rounded=0;whiteSpace=wrap;html=1;strokeWidth=1;fillColor=#ffe6cc;strokeColor=#d79b00;" parent="1" vertex="1">
          <mxGeometry x="400" y="240" width="40" height="40" as="geometry" />
        </mxCell>
        <mxCell id="yZRmuScVjJnWq_XWS8Pr-6" value="&lt;font face=&quot;monaco&quot;&gt;0&lt;/font&gt;" style="rounded=0;whiteSpace=wrap;html=1;strokeWidth=1;fillColor=#ffe6cc;strokeColor=#d79b00;" parent="1" vertex="1">
          <mxGeometry x="440" y="240" width="40" height="40" as="geometry" />
        </mxCell>
        <mxCell id="yZRmuScVjJnWq_XWS8Pr-7" value="&lt;font face=&quot;monaco&quot;&gt;0&lt;/font&gt;" style="rounded=0;whiteSpace=wrap;html=1;strokeWidth=1;fillColor=#ffe6cc;strokeColor=#d79b00;" parent="1" vertex="1">
          <mxGeometry x="480" y="240" width="40" height="40" as="geometry" />
        </mxCell>
        <mxCell id="yZRmuScVjJnWq_XWS8Pr-8" value="&lt;font face=&quot;monaco&quot;&gt;0&lt;/font&gt;" style="rounded=0;whiteSpace=wrap;html=1;strokeWidth=1;fillColor=#ffe6cc;strokeColor=#d79b00;" parent="1" vertex="1">
          <mxGeometry x="520" y="240" width="40" height="40" as="geometry" />
        </mxCell>
        <mxCell id="yZRmuScVjJnWq_XWS8Pr-9" value="&lt;font face=&quot;monaco&quot;&gt;0&lt;/font&gt;" style="rounded=0;whiteSpace=wrap;html=1;strokeWidth=1;fillColor=#ffe6cc;strokeColor=#d79b00;" parent="1" vertex="1">
          <mxGeometry x="560" y="240" width="40" height="40" as="geometry" />
        </mxCell>
        <mxCell id="yZRmuScVjJnWq_XWS8Pr-10" value="&lt;font face=&quot;monaco&quot;&gt;0&lt;/font&gt;" style="rounded=0;whiteSpace=wrap;html=1;strokeWidth=1;fillColor=#ffe6cc;strokeColor=#d79b00;" parent="1" vertex="1">
          <mxGeometry x="600" y="240" width="40" height="40" as="geometry" />
        </mxCell>
        <mxCell id="yZRmuScVjJnWq_XWS8Pr-11" value="&lt;font face=&quot;monaco&quot;&gt;0&lt;/font&gt;" style="rounded=0;whiteSpace=wrap;html=1;strokeWidth=1;fillColor=#ffe6cc;strokeColor=#d79b00;" parent="1" vertex="1">
          <mxGeometry x="640" y="240" width="40" height="40" as="geometry" />
        </mxCell>
        <mxCell id="yZRmuScVjJnWq_XWS8Pr-12" value="&lt;font face=&quot;monaco&quot;&gt;0&lt;/font&gt;" style="rounded=0;whiteSpace=wrap;html=1;strokeWidth=1;fillColor=#ffe6cc;strokeColor=#d79b00;" parent="1" vertex="1">
          <mxGeometry x="680" y="240" width="40" height="40" as="geometry" />
        </mxCell>
        <mxCell id="yZRmuScVjJnWq_XWS8Pr-13" value="&lt;font face=&quot;monaco&quot;&gt;0&lt;/font&gt;" style="rounded=0;whiteSpace=wrap;html=1;strokeWidth=1;fillColor=#ffe6cc;strokeColor=#d79b00;" parent="1" vertex="1">
          <mxGeometry x="720" y="240" width="40" height="40" as="geometry" />
        </mxCell>
        <mxCell id="yZRmuScVjJnWq_XWS8Pr-14" value="&lt;font face=&quot;monaco&quot;&gt;0&lt;/font&gt;" style="rounded=0;whiteSpace=wrap;html=1;strokeWidth=1;fillColor=#ffe6cc;strokeColor=#d79b00;" parent="1" vertex="1">
          <mxGeometry x="760" y="240" width="40" height="40" as="geometry" />
        </mxCell>
        <mxCell id="yZRmuScVjJnWq_XWS8Pr-15" value="" style="shape=curlyBracket;whiteSpace=wrap;html=1;rounded=1;labelPosition=left;verticalLabelPosition=middle;align=right;verticalAlign=middle;rotation=90;" parent="1" vertex="1">
          <mxGeometry x="490" y="110" width="20" height="200" as="geometry" />
        </mxCell>
        <mxCell id="yZRmuScVjJnWq_XWS8Pr-16" value="&lt;font face=&quot;monaco&quot;&gt;&lt;b&gt;len&lt;/b&gt;&lt;/font&gt;" style="text;html=1;align=center;verticalAlign=middle;resizable=0;points=[];autosize=1;strokeColor=none;fillColor=none;" parent="1" vertex="1">
          <mxGeometry x="475" y="176" width="50" height="30" as="geometry" />
        </mxCell>
        <mxCell id="yZRmuScVjJnWq_XWS8Pr-17" value="&lt;font face=&quot;monaco&quot;&gt;&lt;b&gt;slice := make([]int, 5, 10)&lt;/b&gt;&lt;/font&gt;" style="text;html=1;align=center;verticalAlign=middle;resizable=0;points=[];autosize=1;strokeColor=none;fillColor=none;" parent="1" vertex="1">
          <mxGeometry x="140" y="120" width="220" height="30" as="geometry" />
        </mxCell>
        <mxCell id="yZRmuScVjJnWq_XWS8Pr-18" value="" style="shape=curlyBracket;whiteSpace=wrap;html=1;rounded=1;labelPosition=left;verticalLabelPosition=middle;align=right;verticalAlign=middle;rotation=90;" parent="1" vertex="1">
          <mxGeometry x="590" y="-30" width="20" height="400" as="geometry" />
        </mxCell>
        <mxCell id="yZRmuScVjJnWq_XWS8Pr-19" value="&lt;b&gt;&lt;font face=&quot;monaco&quot;&gt;cap&lt;/font&gt;&lt;/b&gt;" style="text;html=1;align=center;verticalAlign=middle;resizable=0;points=[];autosize=1;strokeColor=none;fillColor=none;" parent="1" vertex="1">
          <mxGeometry x="575" y="136" width="50" height="30" as="geometry" />
        </mxCell>
        <mxCell id="yZRmuScVjJnWq_XWS8Pr-21" value="&lt;b style=&quot;&quot;&gt;&lt;font face=&quot;monaco&quot;&gt;array := [10]int{0,1, 2, 3, 4, 5, 6, 7, 8, 9}&lt;/font&gt;&lt;/b&gt;&lt;div&gt;&lt;b style=&quot;&quot;&gt;&lt;font face=&quot;monaco&quot;&gt;slice := array[5:7]&lt;/font&gt;&lt;/b&gt;&lt;/div&gt;" style="text;html=1;align=left;verticalAlign=middle;resizable=0;points=[];autosize=1;strokeColor=none;fillColor=none;" parent="1" vertex="1">
          <mxGeometry x="156" y="490" width="350" height="40" as="geometry" />
        </mxCell>
        <mxCell id="yZRmuScVjJnWq_XWS8Pr-23" value="&lt;font face=&quot;monaco&quot;&gt;slice&lt;/font&gt;" style="rounded=0;whiteSpace=wrap;html=1;strokeWidth=2;fillColor=#dae8fc;strokeColor=#6c8ebf;comic=1;jiggle=3;" parent="1" vertex="1">
          <mxGeometry x="156" y="550" width="90" height="40" as="geometry" />
        </mxCell>
        <mxCell id="yZRmuScVjJnWq_XWS8Pr-42" style="edgeStyle=orthogonalEdgeStyle;rounded=0;orthogonalLoop=1;jettySize=auto;html=1;entryX=0;entryY=1;entryDx=0;entryDy=0;strokeWidth=2;fillColor=#f8cecc;strokeColor=#b85450;" parent="1" source="yZRmuScVjJnWq_XWS8Pr-24" target="yZRmuScVjJnWq_XWS8Pr-32" edge="1">
          <mxGeometry relative="1" as="geometry">
            <Array as="points">
              <mxPoint x="300" y="611" />
              <mxPoint x="300" y="670" />
              <mxPoint x="600" y="670" />
            </Array>
          </mxGeometry>
        </mxCell>
        <mxCell id="yZRmuScVjJnWq_XWS8Pr-24" value="&lt;font face=&quot;monaco&quot;&gt;array&lt;/font&gt;" style="rounded=0;whiteSpace=wrap;html=1;strokeWidth=1;fillColor=#f8cecc;strokeColor=#b85450;comic=1;jiggle=3;" parent="1" vertex="1">
          <mxGeometry x="156" y="591" width="90" height="40" as="geometry" />
        </mxCell>
        <mxCell id="yZRmuScVjJnWq_XWS8Pr-25" value="&lt;font face=&quot;monaco&quot;&gt;len = 2&lt;/font&gt;" style="rounded=0;whiteSpace=wrap;html=1;strokeWidth=1;fillColor=#f8cecc;strokeColor=#b85450;comic=1;jiggle=3;" parent="1" vertex="1">
          <mxGeometry x="156" y="631" width="90" height="40" as="geometry" />
        </mxCell>
        <mxCell id="yZRmuScVjJnWq_XWS8Pr-26" value="&lt;font face=&quot;monaco&quot;&gt;cap = 5&lt;/font&gt;" style="rounded=0;whiteSpace=wrap;html=1;strokeWidth=1;fillColor=#f8cecc;strokeColor=#b85450;comic=1;jiggle=3;" parent="1" vertex="1">
          <mxGeometry x="156" y="671" width="90" height="40" as="geometry" />
        </mxCell>
        <mxCell id="yZRmuScVjJnWq_XWS8Pr-27" value="&lt;font face=&quot;monaco&quot;&gt;0&lt;/font&gt;" style="rounded=0;whiteSpace=wrap;html=1;strokeWidth=1;fillColor=#ffe6cc;strokeColor=#d79b00;" parent="1" vertex="1">
          <mxGeometry x="400" y="610" width="40" height="40" as="geometry" />
        </mxCell>
        <mxCell id="yZRmuScVjJnWq_XWS8Pr-28" value="&lt;font face=&quot;monaco&quot;&gt;1&lt;/font&gt;" style="rounded=0;whiteSpace=wrap;html=1;strokeWidth=1;fillColor=#ffe6cc;strokeColor=#d79b00;" parent="1" vertex="1">
          <mxGeometry x="440" y="610" width="40" height="40" as="geometry" />
        </mxCell>
        <mxCell id="yZRmuScVjJnWq_XWS8Pr-29" value="&lt;font face=&quot;monaco&quot;&gt;2&lt;/font&gt;" style="rounded=0;whiteSpace=wrap;html=1;strokeWidth=1;fillColor=#ffe6cc;strokeColor=#d79b00;" parent="1" vertex="1">
          <mxGeometry x="480" y="610" width="40" height="40" as="geometry" />
        </mxCell>
        <mxCell id="yZRmuScVjJnWq_XWS8Pr-30" value="&lt;font face=&quot;monaco&quot;&gt;3&lt;/font&gt;" style="rounded=0;whiteSpace=wrap;html=1;strokeWidth=1;fillColor=#ffe6cc;strokeColor=#d79b00;" parent="1" vertex="1">
          <mxGeometry x="520" y="610" width="40" height="40" as="geometry" />
        </mxCell>
        <mxCell id="yZRmuScVjJnWq_XWS8Pr-31" value="&lt;font face=&quot;monaco&quot;&gt;4&lt;/font&gt;" style="rounded=0;whiteSpace=wrap;html=1;strokeWidth=1;fillColor=#ffe6cc;strokeColor=#d79b00;" parent="1" vertex="1">
          <mxGeometry x="560" y="610" width="40" height="40" as="geometry" />
        </mxCell>
        <mxCell id="yZRmuScVjJnWq_XWS8Pr-32" value="&lt;font face=&quot;monaco&quot;&gt;5&lt;/font&gt;" style="rounded=0;whiteSpace=wrap;html=1;strokeWidth=3;fillColor=#ffe6cc;strokeColor=#BA8600;" parent="1" vertex="1">
          <mxGeometry x="600" y="610" width="40" height="40" as="geometry" />
        </mxCell>
        <mxCell id="yZRmuScVjJnWq_XWS8Pr-33" value="&lt;font face=&quot;monaco&quot;&gt;6&lt;/font&gt;" style="rounded=0;whiteSpace=wrap;html=1;strokeWidth=3;fillColor=#ffe6cc;strokeColor=#BA8600;" parent="1" vertex="1">
          <mxGeometry x="640" y="610" width="40" height="40" as="geometry" />
        </mxCell>
        <mxCell id="yZRmuScVjJnWq_XWS8Pr-34" value="&lt;font face=&quot;monaco&quot;&gt;7&lt;/font&gt;" style="rounded=0;whiteSpace=wrap;html=1;strokeWidth=3;fillColor=#ffe6cc;strokeColor=#BA8600;" parent="1" vertex="1">
          <mxGeometry x="680" y="610" width="40" height="40" as="geometry" />
        </mxCell>
        <mxCell id="yZRmuScVjJnWq_XWS8Pr-35" value="&lt;font face=&quot;monaco&quot;&gt;8&lt;/font&gt;" style="rounded=0;whiteSpace=wrap;html=1;strokeWidth=3;fillColor=#ffe6cc;strokeColor=#BA8600;" parent="1" vertex="1">
          <mxGeometry x="720" y="610" width="40" height="40" as="geometry" />
        </mxCell>
        <mxCell id="yZRmuScVjJnWq_XWS8Pr-36" value="&lt;font face=&quot;monaco&quot;&gt;9&lt;/font&gt;" style="rounded=0;whiteSpace=wrap;html=1;strokeWidth=3;fillColor=#ffe6cc;strokeColor=#BA8600;" parent="1" vertex="1">
          <mxGeometry x="760" y="610" width="40" height="40" as="geometry" />
        </mxCell>
        <mxCell id="yZRmuScVjJnWq_XWS8Pr-37" value="&lt;b style=&quot;forced-color-adjust: none; color: rgb(0, 0, 0); font-family: Helvetica; font-size: 12px; font-style: normal; font-variant-ligatures: normal; font-variant-caps: normal; letter-spacing: normal; orphans: 2; text-align: left; text-indent: 0px; text-transform: none; widows: 2; word-spacing: 0px; -webkit-text-stroke-width: 0px; white-space: nowrap; background-color: rgb(251, 251, 251); text-decoration-thickness: initial; text-decoration-style: initial; text-decoration-color: initial;&quot;&gt;&lt;font face=&quot;monaco&quot; style=&quot;forced-color-adjust: none;&quot;&gt;array&lt;/font&gt;&lt;/b&gt;" style="text;whiteSpace=wrap;html=1;" parent="1" vertex="1">
          <mxGeometry x="350" y="610" width="70" height="40" as="geometry" />
        </mxCell>
        <mxCell id="yZRmuScVjJnWq_XWS8Pr-38" value="" style="shape=curlyBracket;whiteSpace=wrap;html=1;rounded=1;labelPosition=left;verticalLabelPosition=middle;align=right;verticalAlign=middle;rotation=90;" parent="1" vertex="1">
          <mxGeometry x="630" y="550" width="20" height="80" as="geometry" />
        </mxCell>
        <mxCell id="yZRmuScVjJnWq_XWS8Pr-39" value="&lt;font face=&quot;monaco&quot;&gt;&lt;b&gt;len&lt;/b&gt;&lt;/font&gt;" style="text;html=1;align=center;verticalAlign=middle;resizable=0;points=[];autosize=1;strokeColor=none;fillColor=none;" parent="1" vertex="1">
          <mxGeometry x="615" y="555" width="50" height="30" as="geometry" />
        </mxCell>
        <mxCell id="yZRmuScVjJnWq_XWS8Pr-40" value="" style="shape=curlyBracket;whiteSpace=wrap;html=1;rounded=1;labelPosition=left;verticalLabelPosition=middle;align=right;verticalAlign=middle;rotation=90;" parent="1" vertex="1">
          <mxGeometry x="688" y="440" width="20" height="200" as="geometry" />
        </mxCell>
        <mxCell id="yZRmuScVjJnWq_XWS8Pr-41" value="&lt;b&gt;&lt;font face=&quot;monaco&quot;&gt;cap&lt;/font&gt;&lt;/b&gt;" style="text;html=1;align=center;verticalAlign=middle;resizable=0;points=[];autosize=1;strokeColor=none;fillColor=none;" parent="1" vertex="1">
          <mxGeometry x="673" y="500" width="50" height="30" as="geometry" />
        </mxCell>
        <mxCell id="yZRmuScVjJnWq_XWS8Pr-43" value="&lt;font color=&quot;#666666&quot; face=&quot;monaco&quot;&gt;使用数组创建 slice 时，slice 将与原数共用通一部分内存&lt;/font&gt;" style="text;html=1;align=center;verticalAlign=middle;resizable=0;points=[];autosize=1;strokeColor=none;fillColor=none;" parent="1" vertex="1">
          <mxGeometry x="240" y="750" width="360" height="30" as="geometry" />
        </mxCell>
        <mxCell id="yZRmuScVjJnWq_XWS8Pr-44" value="&lt;font size=&quot;1&quot; face=&quot;Monaco&quot;&gt;&lt;b style=&quot;font-size: 18px;&quot;&gt;创建&lt;/b&gt;&lt;/font&gt;" style="text;html=1;align=center;verticalAlign=middle;resizable=0;points=[];autosize=1;strokeColor=none;fillColor=none;fontSize=12;fontFamily=Helvetica;fontColor=default;" parent="1" vertex="1">
          <mxGeometry x="140" y="60" width="60" height="40" as="geometry" />
        </mxCell>
        <mxCell id="yZRmuScVjJnWq_XWS8Pr-45" value="&lt;font size=&quot;1&quot; face=&quot;Monaco&quot;&gt;&lt;b style=&quot;font-size: 18px;&quot;&gt;扩容&lt;/b&gt;&lt;/font&gt;" style="text;html=1;align=center;verticalAlign=middle;resizable=0;points=[];autosize=1;strokeColor=none;fillColor=none;fontSize=12;fontFamily=Helvetica;fontColor=default;" parent="1" vertex="1">
          <mxGeometry x="140" y="910" width="60" height="40" as="geometry" />
        </mxCell>
        <mxCell id="yZRmuScVjJnWq_XWS8Pr-46" value="&lt;font face=&quot;Monaco&quot;&gt;扩容基本规则：&lt;/font&gt;&lt;div&gt;&lt;font face=&quot;Monaco&quot;&gt;&lt;br&gt;&lt;/font&gt;&lt;div&gt;&lt;b&gt;&lt;font face=&quot;Monaco&quot;&gt;threshold =&amp;nbsp;&lt;/font&gt;&lt;span style=&quot;font-family: Monaco;&quot;&gt;256&lt;/span&gt;&lt;/b&gt;&lt;font face=&quot;Monaco&quot;&gt;&lt;br&gt;&lt;/font&gt;&lt;div&gt;&lt;font face=&quot;Monaco&quot;&gt;- if cap(slice) &amp;lt;&amp;nbsp;&lt;/font&gt;&lt;b style=&quot;background-color: initial;&quot;&gt;&lt;font face=&quot;Monaco&quot;&gt;threshold&lt;/font&gt;&lt;/b&gt;&lt;/div&gt;&lt;div&gt;&lt;font face=&quot;Monaco&quot;&gt;&amp;nbsp; &amp;nbsp; slice.cap &amp;lt;- 2 * n&lt;/font&gt;&lt;/div&gt;&lt;div&gt;&lt;font face=&quot;Monaco&quot;&gt;&lt;br&gt;&lt;/font&gt;&lt;/div&gt;&lt;div&gt;&lt;font face=&quot;Monaco&quot;&gt;- if cap(slice) &amp;gt;= 256&lt;/font&gt;&lt;/div&gt;&lt;div&gt;&lt;font face=&quot;Monaco&quot;&gt;&amp;nbsp; &amp;nbsp; slice.cap += (&lt;/font&gt;&lt;span style=&quot;font-family: Monaco;&quot;&gt;cap(slice)&lt;/span&gt;&lt;font face=&quot;Monaco&quot;&gt;&amp;nbsp;+ 3 *&amp;nbsp;&lt;/font&gt;&lt;b&gt;&lt;font face=&quot;Monaco&quot;&gt;threshold&lt;/font&gt;&lt;/b&gt;&lt;font face=&quot;Monaco&quot;&gt;) / 4&lt;/font&gt;&lt;/div&gt;&lt;/div&gt;&lt;div&gt;&amp;nbsp; &amp;nbsp; &amp;nbsp; &amp;nbsp; &amp;nbsp;如果&amp;nbsp;&lt;span style=&quot;font-family: Monaco; background-color: initial;&quot;&gt;slice.cap 超过最大值，则&lt;/span&gt;&lt;span style=&quot;background-color: initial;&quot;&gt;最大值封顶&lt;/span&gt;&lt;/div&gt;&lt;/div&gt;" style="text;html=1;align=left;verticalAlign=middle;resizable=0;points=[];autosize=1;strokeColor=none;fillColor=none;fontSize=12;fontFamily=Helvetica;fontColor=default;" parent="1" vertex="1">
          <mxGeometry x="160" y="989" width="380" height="150" as="geometry" />
        </mxCell>
        <mxCell id="yZRmuScVjJnWq_XWS8Pr-47" value="&lt;font face=&quot;monaco&quot;&gt;(1) slice.len++&lt;/font&gt;&lt;div&gt;&lt;font face=&quot;monaco&quot;&gt;(2) return slice&lt;/font&gt;&lt;/div&gt;" style="rounded=0;whiteSpace=wrap;html=1;strokeWidth=2;fillColor=#dae8fc;strokeColor=#6c8ebf;align=left;" parent="1" vertex="1">
          <mxGeometry x="160" y="1310" width="150" height="40" as="geometry" />
        </mxCell>
        <mxCell id="yZRmuScVjJnWq_XWS8Pr-51" style="edgeStyle=orthogonalEdgeStyle;rounded=0;orthogonalLoop=1;jettySize=auto;html=1;strokeWidth=2;" parent="1" source="yZRmuScVjJnWq_XWS8Pr-48" edge="1">
          <mxGeometry relative="1" as="geometry">
            <mxPoint x="320" y="1330" as="targetPoint" />
          </mxGeometry>
        </mxCell>
        <mxCell id="yZRmuScVjJnWq_XWS8Pr-52" value="&lt;b&gt;&lt;font face=&quot;monaco&quot;&gt;Y&lt;/font&gt;&lt;/b&gt;" style="edgeLabel;html=1;align=center;verticalAlign=middle;resizable=0;points=[];" parent="yZRmuScVjJnWq_XWS8Pr-51" vertex="1" connectable="0">
          <mxGeometry x="0.0697" y="-4" relative="1" as="geometry">
            <mxPoint as="offset" />
          </mxGeometry>
        </mxCell>
        <mxCell id="yZRmuScVjJnWq_XWS8Pr-48" value="cap ok？" style="strokeWidth=2;html=1;shape=mxgraph.flowchart.decision;whiteSpace=wrap;fontFamily=monaco;fillColor=#f8cecc;strokeColor=#b85450;" parent="1" vertex="1">
          <mxGeometry x="460" y="1290" width="120" height="80" as="geometry" />
        </mxCell>
        <mxCell id="yZRmuScVjJnWq_XWS8Pr-50" value="&lt;font face=&quot;Monaco&quot;&gt;slice = append(slice, data)&lt;/font&gt;" style="text;html=1;align=center;verticalAlign=middle;resizable=0;points=[];autosize=1;strokeColor=none;fillColor=none;fontSize=12;fontFamily=Helvetica;fontColor=default;" parent="1" vertex="1">
          <mxGeometry x="156" y="1240" width="220" height="30" as="geometry" />
        </mxCell>
        <mxCell id="yZRmuScVjJnWq_XWS8Pr-53" value="&lt;font face=&quot;monaco&quot;&gt;(1) memmove -&amp;gt; new slice&lt;/font&gt;&lt;div&gt;&lt;font face=&quot;monaco&quot;&gt;(2) new element... -&amp;gt; slice, len++&lt;/font&gt;&lt;/div&gt;&lt;div&gt;&lt;font face=&quot;monaco&quot;&gt;(3) return slice&lt;/font&gt;&lt;/div&gt;" style="rounded=0;whiteSpace=wrap;html=1;strokeWidth=2;fillColor=#dae8fc;strokeColor=#6c8ebf;align=left;" parent="1" vertex="1">
          <mxGeometry x="379" y="1440" width="261" height="60" as="geometry" />
        </mxCell>
        <mxCell id="yZRmuScVjJnWq_XWS8Pr-54" style="edgeStyle=orthogonalEdgeStyle;rounded=0;orthogonalLoop=1;jettySize=auto;html=1;entryX=0.542;entryY=0.074;entryDx=0;entryDy=0;entryPerimeter=0;strokeWidth=2;" parent="1" source="yZRmuScVjJnWq_XWS8Pr-48" target="yZRmuScVjJnWq_XWS8Pr-53" edge="1">
          <mxGeometry relative="1" as="geometry" />
        </mxCell>
        <mxCell id="yZRmuScVjJnWq_XWS8Pr-55" value="&lt;b&gt;&lt;font face=&quot;monaco&quot;&gt;N&lt;/font&gt;&lt;/b&gt;" style="edgeLabel;html=1;align=center;verticalAlign=middle;resizable=0;points=[];" parent="yZRmuScVjJnWq_XWS8Pr-54" vertex="1" connectable="0">
          <mxGeometry x="-0.3593" y="-1" relative="1" as="geometry">
            <mxPoint as="offset" />
          </mxGeometry>
        </mxCell>
        <mxCell id="yZRmuScVjJnWq_XWS8Pr-56" value="&lt;b style=&quot;&quot;&gt;&lt;font face=&quot;monaco&quot;&gt;array := [10]int{0,1, 2, 3, 4, 5, 6, 7, 8, 9}&lt;/font&gt;&lt;/b&gt;&lt;div&gt;&lt;b style=&quot;&quot;&gt;&lt;font face=&quot;monaco&quot;&gt;slice := &lt;font color=&quot;#ff0000&quot;&gt;array[5:7：7]&lt;/font&gt;&lt;/font&gt;&lt;/b&gt;&lt;/div&gt;" style="text;html=1;align=left;verticalAlign=middle;resizable=0;points=[];autosize=1;strokeColor=none;fillColor=none;movable=0;rotatable=0;deletable=0;editable=0;locked=1;connectable=0;" parent="1" vertex="1">
          <mxGeometry x="156" y="1830" width="350" height="40" as="geometry" />
        </mxCell>
        <mxCell id="yZRmuScVjJnWq_XWS8Pr-57" value="&lt;font face=&quot;monaco&quot;&gt;slice&lt;/font&gt;" style="rounded=0;whiteSpace=wrap;html=1;strokeWidth=2;fillColor=#dae8fc;strokeColor=#6c8ebf;comic=1;jiggle=3;movable=0;resizable=0;rotatable=0;deletable=0;editable=0;locked=1;connectable=0;" parent="1" vertex="1">
          <mxGeometry x="156" y="1890" width="90" height="40" as="geometry" />
        </mxCell>
        <mxCell id="yZRmuScVjJnWq_XWS8Pr-58" style="edgeStyle=orthogonalEdgeStyle;rounded=0;orthogonalLoop=1;jettySize=auto;html=1;entryX=0;entryY=1;entryDx=0;entryDy=0;strokeWidth=2;fillColor=#f8cecc;strokeColor=#b85450;movable=0;resizable=0;rotatable=0;deletable=0;editable=0;locked=1;connectable=0;" parent="1" source="yZRmuScVjJnWq_XWS8Pr-59" target="yZRmuScVjJnWq_XWS8Pr-67" edge="1">
          <mxGeometry relative="1" as="geometry">
            <Array as="points">
              <mxPoint x="300" y="1951" />
              <mxPoint x="300" y="2010" />
              <mxPoint x="600" y="2010" />
            </Array>
          </mxGeometry>
        </mxCell>
        <mxCell id="yZRmuScVjJnWq_XWS8Pr-59" value="&lt;font face=&quot;monaco&quot;&gt;array&lt;/font&gt;" style="rounded=0;whiteSpace=wrap;html=1;strokeWidth=1;fillColor=#f8cecc;strokeColor=#b85450;comic=1;jiggle=3;movable=0;resizable=0;rotatable=0;deletable=0;editable=0;locked=1;connectable=0;" parent="1" vertex="1">
          <mxGeometry x="156" y="1931" width="90" height="40" as="geometry" />
        </mxCell>
        <mxCell id="yZRmuScVjJnWq_XWS8Pr-60" value="&lt;font face=&quot;monaco&quot;&gt;len = 2&lt;/font&gt;" style="rounded=0;whiteSpace=wrap;html=1;strokeWidth=1;fillColor=#f8cecc;strokeColor=#b85450;comic=1;jiggle=3;movable=0;resizable=0;rotatable=0;deletable=0;editable=0;locked=1;connectable=0;" parent="1" vertex="1">
          <mxGeometry x="156" y="1971" width="90" height="40" as="geometry" />
        </mxCell>
        <mxCell id="yZRmuScVjJnWq_XWS8Pr-61" value="&lt;font face=&quot;monaco&quot;&gt;cap = 5&lt;/font&gt;" style="rounded=0;whiteSpace=wrap;html=1;strokeWidth=1;fillColor=#f8cecc;strokeColor=#b85450;comic=1;jiggle=3;movable=0;resizable=0;rotatable=0;deletable=0;editable=0;locked=1;connectable=0;" parent="1" vertex="1">
          <mxGeometry x="156" y="2011" width="90" height="40" as="geometry" />
        </mxCell>
        <mxCell id="yZRmuScVjJnWq_XWS8Pr-62" value="&lt;font face=&quot;monaco&quot;&gt;0&lt;/font&gt;" style="rounded=0;whiteSpace=wrap;html=1;strokeWidth=1;fillColor=#ffe6cc;strokeColor=#d79b00;movable=0;resizable=0;rotatable=0;deletable=0;editable=0;locked=1;connectable=0;" parent="1" vertex="1">
          <mxGeometry x="400" y="1950" width="40" height="40" as="geometry" />
        </mxCell>
        <mxCell id="yZRmuScVjJnWq_XWS8Pr-63" value="&lt;font face=&quot;monaco&quot;&gt;1&lt;/font&gt;" style="rounded=0;whiteSpace=wrap;html=1;strokeWidth=1;fillColor=#ffe6cc;strokeColor=#d79b00;movable=0;resizable=0;rotatable=0;deletable=0;editable=0;locked=1;connectable=0;" parent="1" vertex="1">
          <mxGeometry x="440" y="1950" width="40" height="40" as="geometry" />
        </mxCell>
        <mxCell id="yZRmuScVjJnWq_XWS8Pr-64" value="&lt;font face=&quot;monaco&quot;&gt;2&lt;/font&gt;" style="rounded=0;whiteSpace=wrap;html=1;strokeWidth=1;fillColor=#ffe6cc;strokeColor=#d79b00;movable=0;resizable=0;rotatable=0;deletable=0;editable=0;locked=1;connectable=0;" parent="1" vertex="1">
          <mxGeometry x="480" y="1950" width="40" height="40" as="geometry" />
        </mxCell>
        <mxCell id="yZRmuScVjJnWq_XWS8Pr-65" value="&lt;font face=&quot;monaco&quot;&gt;3&lt;/font&gt;" style="rounded=0;whiteSpace=wrap;html=1;strokeWidth=1;fillColor=#ffe6cc;strokeColor=#d79b00;movable=0;resizable=0;rotatable=0;deletable=0;editable=0;locked=1;connectable=0;" parent="1" vertex="1">
          <mxGeometry x="520" y="1950" width="40" height="40" as="geometry" />
        </mxCell>
        <mxCell id="yZRmuScVjJnWq_XWS8Pr-66" value="&lt;font face=&quot;monaco&quot;&gt;4&lt;/font&gt;" style="rounded=0;whiteSpace=wrap;html=1;strokeWidth=1;fillColor=#ffe6cc;strokeColor=#d79b00;movable=0;resizable=0;rotatable=0;deletable=0;editable=0;locked=1;connectable=0;" parent="1" vertex="1">
          <mxGeometry x="560" y="1950" width="40" height="40" as="geometry" />
        </mxCell>
        <mxCell id="yZRmuScVjJnWq_XWS8Pr-67" value="&lt;font face=&quot;monaco&quot;&gt;5&lt;/font&gt;" style="rounded=0;whiteSpace=wrap;html=1;strokeWidth=3;fillColor=#ffe6cc;strokeColor=#BA8600;movable=0;resizable=0;rotatable=0;deletable=0;editable=0;locked=1;connectable=0;" parent="1" vertex="1">
          <mxGeometry x="600" y="1950" width="40" height="40" as="geometry" />
        </mxCell>
        <mxCell id="yZRmuScVjJnWq_XWS8Pr-68" value="&lt;font face=&quot;monaco&quot;&gt;6&lt;/font&gt;" style="rounded=0;whiteSpace=wrap;html=1;strokeWidth=3;fillColor=#ffe6cc;strokeColor=#BA8600;movable=0;resizable=0;rotatable=0;deletable=0;editable=0;locked=1;connectable=0;" parent="1" vertex="1">
          <mxGeometry x="640" y="1950" width="40" height="40" as="geometry" />
        </mxCell>
        <mxCell id="yZRmuScVjJnWq_XWS8Pr-69" value="&lt;font face=&quot;monaco&quot;&gt;7&lt;/font&gt;" style="rounded=0;whiteSpace=wrap;html=1;strokeWidth=1;fillColor=#ffe6cc;strokeColor=#BA8600;movable=0;resizable=0;rotatable=0;deletable=0;editable=0;locked=1;connectable=0;" parent="1" vertex="1">
          <mxGeometry x="680" y="1950" width="40" height="40" as="geometry" />
        </mxCell>
        <mxCell id="yZRmuScVjJnWq_XWS8Pr-70" value="&lt;font face=&quot;monaco&quot;&gt;8&lt;/font&gt;" style="rounded=0;whiteSpace=wrap;html=1;strokeWidth=1;fillColor=#ffe6cc;strokeColor=#BA8600;movable=0;resizable=0;rotatable=0;deletable=0;editable=0;locked=1;connectable=0;" parent="1" vertex="1">
          <mxGeometry x="720" y="1950" width="40" height="40" as="geometry" />
        </mxCell>
        <mxCell id="yZRmuScVjJnWq_XWS8Pr-71" value="&lt;font face=&quot;monaco&quot;&gt;9&lt;/font&gt;" style="rounded=0;whiteSpace=wrap;html=1;strokeWidth=1;fillColor=#ffe6cc;strokeColor=#BA8600;movable=0;resizable=0;rotatable=0;deletable=0;editable=0;locked=1;connectable=0;" parent="1" vertex="1">
          <mxGeometry x="760" y="1950" width="40" height="40" as="geometry" />
        </mxCell>
        <mxCell id="yZRmuScVjJnWq_XWS8Pr-72" value="&lt;b style=&quot;forced-color-adjust: none; color: rgb(0, 0, 0); font-family: Helvetica; font-size: 12px; font-style: normal; font-variant-ligatures: normal; font-variant-caps: normal; letter-spacing: normal; orphans: 2; text-align: left; text-indent: 0px; text-transform: none; widows: 2; word-spacing: 0px; -webkit-text-stroke-width: 0px; white-space: nowrap; background-color: rgb(251, 251, 251); text-decoration-thickness: initial; text-decoration-style: initial; text-decoration-color: initial;&quot;&gt;&lt;font face=&quot;monaco&quot; style=&quot;forced-color-adjust: none;&quot;&gt;array&lt;/font&gt;&lt;/b&gt;" style="text;whiteSpace=wrap;html=1;movable=0;resizable=0;rotatable=0;deletable=0;editable=0;locked=1;connectable=0;" parent="1" vertex="1">
          <mxGeometry x="350" y="1950" width="70" height="40" as="geometry" />
        </mxCell>
        <mxCell id="yZRmuScVjJnWq_XWS8Pr-73" value="" style="shape=curlyBracket;whiteSpace=wrap;html=1;rounded=1;labelPosition=left;verticalLabelPosition=middle;align=right;verticalAlign=middle;rotation=90;movable=0;resizable=0;rotatable=0;deletable=0;editable=0;locked=1;connectable=0;" parent="1" vertex="1">
          <mxGeometry x="630" y="1890" width="20" height="80" as="geometry" />
        </mxCell>
        <mxCell id="yZRmuScVjJnWq_XWS8Pr-74" value="&lt;font face=&quot;monaco&quot;&gt;&lt;b&gt;len&lt;/b&gt;&lt;/font&gt;" style="text;html=1;align=center;verticalAlign=middle;resizable=0;points=[];autosize=1;strokeColor=none;fillColor=none;movable=0;rotatable=0;deletable=0;editable=0;locked=1;connectable=0;" parent="1" vertex="1">
          <mxGeometry x="615" y="1895" width="50" height="30" as="geometry" />
        </mxCell>
        <mxCell id="yZRmuScVjJnWq_XWS8Pr-75" value="" style="shape=curlyBracket;whiteSpace=wrap;html=1;rounded=1;labelPosition=left;verticalLabelPosition=middle;align=right;verticalAlign=middle;rotation=90;movable=0;resizable=0;rotatable=0;deletable=0;editable=0;locked=1;connectable=0;" parent="1" vertex="1">
          <mxGeometry x="628" y="1840" width="20" height="80" as="geometry" />
        </mxCell>
        <mxCell id="yZRmuScVjJnWq_XWS8Pr-76" value="&lt;b&gt;&lt;font face=&quot;monaco&quot;&gt;cap&lt;/font&gt;&lt;/b&gt;" style="text;html=1;align=center;verticalAlign=middle;resizable=0;points=[];autosize=1;strokeColor=none;fillColor=none;movable=0;rotatable=0;deletable=0;editable=0;locked=1;connectable=0;" parent="1" vertex="1">
          <mxGeometry x="613" y="1840" width="50" height="30" as="geometry" />
        </mxCell>
        <mxCell id="yZRmuScVjJnWq_XWS8Pr-77" value="&lt;div&gt;&lt;b style=&quot;&quot;&gt;&lt;font face=&quot;monaco&quot;&gt;slice = append(slice, 100)&lt;/font&gt;&lt;/b&gt;&lt;/div&gt;" style="text;html=1;align=left;verticalAlign=middle;resizable=0;points=[];autosize=1;strokeColor=none;fillColor=none;movable=0;rotatable=0;deletable=0;editable=0;locked=1;connectable=0;" parent="1" vertex="1">
          <mxGeometry x="156" y="2105" width="210" height="30" as="geometry" />
        </mxCell>
        <mxCell id="yZRmuScVjJnWq_XWS8Pr-79" value="&lt;font face=&quot;monaco&quot;&gt;slice&lt;/font&gt;" style="rounded=0;whiteSpace=wrap;html=1;strokeWidth=2;fillColor=#dae8fc;strokeColor=#6c8ebf;comic=1;jiggle=3;movable=0;resizable=0;rotatable=0;deletable=0;editable=0;locked=1;connectable=0;" parent="1" vertex="1">
          <mxGeometry x="156" y="2190" width="90" height="40" as="geometry" />
        </mxCell>
        <mxCell id="yZRmuScVjJnWq_XWS8Pr-80" style="edgeStyle=orthogonalEdgeStyle;rounded=0;orthogonalLoop=1;jettySize=auto;html=1;entryX=0.75;entryY=1;entryDx=0;entryDy=0;strokeWidth=2;fillColor=#f8cecc;strokeColor=#b85450;exitX=1;exitY=0.5;exitDx=0;exitDy=0;movable=0;resizable=0;rotatable=0;deletable=0;editable=0;locked=1;connectable=0;" parent="1" source="yZRmuScVjJnWq_XWS8Pr-81" edge="1">
          <mxGeometry relative="1" as="geometry">
            <Array as="points">
              <mxPoint x="297" y="2251" />
              <mxPoint x="297" y="2338" />
              <mxPoint x="403" y="2338" />
            </Array>
            <mxPoint x="243.5" y="2279.0044827586203" as="sourcePoint" />
            <mxPoint x="402.5" y="2290" as="targetPoint" />
          </mxGeometry>
        </mxCell>
        <mxCell id="yZRmuScVjJnWq_XWS8Pr-81" value="&lt;font face=&quot;monaco&quot;&gt;array&lt;/font&gt;" style="rounded=0;whiteSpace=wrap;html=1;strokeWidth=1;fillColor=#f8cecc;strokeColor=#b85450;comic=1;jiggle=3;movable=0;resizable=0;rotatable=0;deletable=0;editable=0;locked=1;connectable=0;" parent="1" vertex="1">
          <mxGeometry x="156" y="2231" width="90" height="40" as="geometry" />
        </mxCell>
        <mxCell id="yZRmuScVjJnWq_XWS8Pr-82" value="&lt;font face=&quot;monaco&quot;&gt;len = 2&lt;/font&gt;" style="rounded=0;whiteSpace=wrap;html=1;strokeWidth=1;fillColor=#f8cecc;strokeColor=#b85450;comic=1;jiggle=3;movable=0;resizable=0;rotatable=0;deletable=0;editable=0;locked=1;connectable=0;" parent="1" vertex="1">
          <mxGeometry x="156" y="2271" width="90" height="40" as="geometry" />
        </mxCell>
        <mxCell id="yZRmuScVjJnWq_XWS8Pr-83" value="&lt;font face=&quot;monaco&quot;&gt;cap = 5&lt;/font&gt;" style="rounded=0;whiteSpace=wrap;html=1;strokeWidth=1;fillColor=#f8cecc;strokeColor=#b85450;comic=1;jiggle=3;movable=0;resizable=0;rotatable=0;deletable=0;editable=0;locked=1;connectable=0;" parent="1" vertex="1">
          <mxGeometry x="156" y="2311" width="90" height="40" as="geometry" />
        </mxCell>
        <mxCell id="yZRmuScVjJnWq_XWS8Pr-84" value="&lt;font face=&quot;monaco&quot;&gt;5&lt;/font&gt;" style="rounded=0;whiteSpace=wrap;html=1;strokeWidth=2;fillColor=#ffe6cc;strokeColor=#d79b00;movable=0;resizable=0;rotatable=0;deletable=0;editable=0;locked=1;connectable=0;" parent="1" vertex="1">
          <mxGeometry x="400" y="2250" width="40" height="40" as="geometry" />
        </mxCell>
        <mxCell id="yZRmuScVjJnWq_XWS8Pr-85" value="&lt;font face=&quot;monaco&quot;&gt;6&lt;/font&gt;" style="rounded=0;whiteSpace=wrap;html=1;strokeWidth=2;fillColor=#ffe6cc;strokeColor=#d79b00;movable=0;resizable=0;rotatable=0;deletable=0;editable=0;locked=1;connectable=0;" parent="1" vertex="1">
          <mxGeometry x="440" y="2250" width="40" height="40" as="geometry" />
        </mxCell>
        <mxCell id="yZRmuScVjJnWq_XWS8Pr-86" value="&lt;font face=&quot;monaco&quot;&gt;100&lt;/font&gt;" style="rounded=0;whiteSpace=wrap;html=1;strokeWidth=2;fillColor=#ffe6cc;strokeColor=#d79b00;movable=0;resizable=0;rotatable=0;deletable=0;editable=0;locked=1;connectable=0;" parent="1" vertex="1">
          <mxGeometry x="480" y="2250" width="40" height="40" as="geometry" />
        </mxCell>
        <mxCell id="yZRmuScVjJnWq_XWS8Pr-87" value="&lt;font face=&quot;monaco&quot;&gt;0&lt;/font&gt;" style="rounded=0;whiteSpace=wrap;html=1;strokeWidth=1;fillColor=#ffe6cc;strokeColor=#d79b00;movable=0;resizable=0;rotatable=0;deletable=0;editable=0;locked=1;connectable=0;" parent="1" vertex="1">
          <mxGeometry x="521" y="2250" width="40" height="40" as="geometry" />
        </mxCell>
        <mxCell id="yZRmuScVjJnWq_XWS8Pr-88" value="&lt;font face=&quot;monaco&quot;&gt;0&lt;/font&gt;" style="rounded=0;whiteSpace=wrap;html=1;strokeWidth=1;fillColor=#ffe6cc;strokeColor=#d79b00;movable=0;resizable=0;rotatable=0;deletable=0;editable=0;locked=1;connectable=0;" parent="1" vertex="1">
          <mxGeometry x="561" y="2250" width="40" height="40" as="geometry" />
        </mxCell>
        <mxCell id="yZRmuScVjJnWq_XWS8Pr-89" value="&lt;font face=&quot;monaco&quot;&gt;0&lt;/font&gt;" style="rounded=0;whiteSpace=wrap;html=1;strokeWidth=1;fillColor=#ffe6cc;strokeColor=#BA8600;movable=0;resizable=0;rotatable=0;deletable=0;editable=0;locked=1;connectable=0;" parent="1" vertex="1">
          <mxGeometry x="601" y="2250" width="40" height="40" as="geometry" />
        </mxCell>
        <mxCell id="yZRmuScVjJnWq_XWS8Pr-90" value="&lt;font face=&quot;monaco&quot;&gt;0&lt;/font&gt;" style="rounded=0;whiteSpace=wrap;html=1;strokeWidth=1;fillColor=#ffe6cc;strokeColor=#BA8600;movable=0;resizable=0;rotatable=0;deletable=0;editable=0;locked=1;connectable=0;" parent="1" vertex="1">
          <mxGeometry x="641" y="2250" width="40" height="40" as="geometry" />
        </mxCell>
        <mxCell id="yZRmuScVjJnWq_XWS8Pr-95" value="" style="shape=curlyBracket;whiteSpace=wrap;html=1;rounded=1;labelPosition=left;verticalLabelPosition=middle;align=right;verticalAlign=middle;rotation=90;movable=0;resizable=0;rotatable=0;deletable=0;editable=0;locked=1;connectable=0;" parent="1" vertex="1">
          <mxGeometry x="450" y="2170" width="20" height="120" as="geometry" />
        </mxCell>
        <mxCell id="yZRmuScVjJnWq_XWS8Pr-96" value="&lt;font face=&quot;monaco&quot;&gt;&lt;b&gt;len&lt;/b&gt;&lt;/font&gt;" style="text;html=1;align=center;verticalAlign=middle;resizable=0;points=[];autosize=1;strokeColor=none;fillColor=none;movable=0;rotatable=0;deletable=0;editable=0;locked=1;connectable=0;" parent="1" vertex="1">
          <mxGeometry x="435" y="2195" width="50" height="30" as="geometry" />
        </mxCell>
        <mxCell id="yZRmuScVjJnWq_XWS8Pr-97" value="" style="shape=curlyBracket;whiteSpace=wrap;html=1;rounded=1;labelPosition=left;verticalLabelPosition=middle;align=right;verticalAlign=middle;rotation=90;movable=0;resizable=0;rotatable=0;deletable=0;editable=0;locked=1;connectable=0;" parent="1" vertex="1">
          <mxGeometry x="528" y="2040" width="20" height="280" as="geometry" />
        </mxCell>
        <mxCell id="yZRmuScVjJnWq_XWS8Pr-98" value="&lt;b&gt;&lt;font face=&quot;monaco&quot;&gt;cap&lt;/font&gt;&lt;/b&gt;" style="text;html=1;align=center;verticalAlign=middle;resizable=0;points=[];autosize=1;strokeColor=none;fillColor=none;movable=0;rotatable=0;deletable=0;editable=0;locked=1;connectable=0;" parent="1" vertex="1">
          <mxGeometry x="513" y="2150" width="50" height="30" as="geometry" />
        </mxCell>
      </root>
    </mxGraphModel>
  </diagram>
</mxfile>
